<svg width="28" height="29" viewBox="0 0 28 29" fill="none" xmlns="http://www.w3.org/2000/svg">
<g clip-path="url(#clip0_1175_28792)">
<path fill-rule="evenodd" clip-rule="evenodd" d="M14 28.3333C21.732 28.3333 28 22.0652 28 14.3333C28 6.60127 21.732 0.333252 14 0.333252C6.26801 0.333252 0 6.60127 0 14.3333C0 22.0652 6.26801 28.3333 14 28.3333Z" fill="#00008B"/>
<path fill-rule="evenodd" clip-rule="evenodd" d="M2.16732 6.84741C2.54466 6.2522 2.96568 5.68741 3.42586 5.15755L6.97813 7.79263L12.2938 3.83325H14V5.1895L8.75 9.10513L14 12.9989V14.3333H12.25L7 10.4176L1.77188 14.3333H0C0 13.874 0.0221097 13.42 0.0653226 12.9721L5.22813 9.127L2.16732 6.84741Z" fill="white"/>
<path fill-rule="evenodd" clip-rule="evenodd" d="M2.37477 6.52976C2.5169 6.31844 2.66464 6.11121 2.81778 5.90827L5.22813 7.68325H3.91562L2.37477 6.52976ZM0 14.3333H1.18125L5.38125 11.1833L5.25 10.4176L0 14.3333ZM14 13.4583L9.275 9.98013H8.07188L14 14.3333V13.4583ZM14 3.89888V3.83325H12.9062L8.59687 7.04888L8.55312 8.01138L14 3.89888Z" fill="#FF0000"/>
<path fill-rule="evenodd" clip-rule="evenodd" d="M0.441406 10.8333C0.760997 9.59155 1.24666 8.41652 1.8733 7.33325H5.27222V3.83325H8.77222V7.33325H14.0003V10.8333H8.77222V14.3333H5.27222V10.8333H0.441406Z" fill="white"/>
<path fill-rule="evenodd" clip-rule="evenodd" d="M0.633789 10.1551C0.860894 9.42786 1.14572 8.72607 1.48291 8.05513H5.97159V3.83325H8.07159V8.05513H13.9997V10.1551H8.07159V14.3333H5.97159V10.1551H0.633789Z" fill="#FF0000"/>
<path d="M23.056 21.1888L22.1591 21.3026L22.2554 22.1994L21.6079 21.5694L20.9647 22.2038L21.0522 21.3069L20.1554 21.2019L20.9122 20.7119L20.4354 19.9463L21.2929 20.2307L21.5947 19.3776L21.9054 20.2263L22.7585 19.9332L22.2904 20.7032L23.0516 21.1888H23.056ZM22.8941 16.0613L23.0122 15.4926L22.5835 15.0988L23.161 15.0332L23.4016 14.5038L23.6422 15.0332L24.2197 15.0988L23.791 15.4926L23.9091 16.0613L23.4016 15.7726L22.8941 16.0613ZM18.3397 13.4363L17.4516 13.5326L17.5304 14.4207L16.9004 13.7863L16.2529 14.4032L16.3579 13.5151L15.4741 13.3969L16.231 12.9244L15.7716 12.1588L16.616 12.4563L16.931 11.6207L17.2241 12.4651L18.0729 12.1894L17.596 12.9463L18.3441 13.4363H18.3397ZM27.256 12.0013L26.3416 12.1194L26.4422 13.0338L25.7816 12.3907L25.1254 13.0382L25.2172 12.1194L24.3029 12.0144L25.0772 11.5113L24.5916 10.7282L25.4666 11.0213L25.7728 10.1551L26.0879 11.0213L26.9585 10.7194L26.4772 11.5069L27.256 12.0013ZM23.0516 8.34818L22.146 8.44881L22.2291 9.35881L21.586 8.71131L20.9254 9.34131L21.0304 8.43568L20.1247 8.31318L20.8991 7.83193L20.431 7.04881L21.2929 7.35068L21.6122 6.49756L21.9097 7.35943L22.776 7.07506L22.2904 7.84506L23.0516 8.34818ZM10.2372 20.7076L8.23348 20.9438L8.43473 22.9519L6.99973 21.5344L5.55598 22.9432L5.77035 20.9351L3.7666 20.6813L5.46848 19.5963L4.41848 17.8726L6.32598 18.5288L7.01723 16.6301L7.69535 18.5332L9.60723 17.8901L8.5441 19.6051L10.2416 20.7032L10.2372 20.7076Z" fill="white"/>
<path fill-rule="evenodd" clip-rule="evenodd" d="M14 27.5166C21.281 27.5166 27.1833 21.6142 27.1833 14.3333C27.1833 7.0523 21.281 1.14992 14 1.14992C6.71905 1.14992 0.816667 7.0523 0.816667 14.3333C0.816667 21.6142 6.71905 27.5166 14 27.5166ZM14 28.3333C21.732 28.3333 28 22.0652 28 14.3333C28 6.60127 21.732 0.333252 14 0.333252C6.26801 0.333252 0 6.60127 0 14.3333C0 22.0652 6.26801 28.3333 14 28.3333Z" fill="#D9D9D9"/>
</g>
<defs>
<clipPath id="clip0_1175_28792">
<rect y="0.333252" width="28" height="28" fill="white"/>
</clipPath>
</defs>
</svg>
