<svg width="28" height="29" viewBox="0 0 28 29" fill="none" xmlns="http://www.w3.org/2000/svg">
<g clip-path="url(#clip0_1175_28746)">
<path fill-rule="evenodd" clip-rule="evenodd" d="M9.33187 27.8696C3.89507 25.9473 0 20.7619 0 14.6667C0 8.57158 3.89507 3.38618 9.33187 1.46387V27.8696Z" fill="black"/>
<path fill-rule="evenodd" clip-rule="evenodd" d="M18.6683 1.464V27.8695C17.2081 28.3858 15.6368 28.6667 13.9998 28.6667C12.3631 28.6667 10.792 28.3859 9.33203 27.8697V1.46378C10.792 0.947614 12.3631 0.666748 13.9998 0.666748C15.6368 0.666748 17.2081 0.947696 18.6683 1.464Z" fill="#FFD90C"/>
<path fill-rule="evenodd" clip-rule="evenodd" d="M27.9998 14.5711V14.7626C27.9593 20.8163 24.0765 25.9577 18.668 27.8698V1.46387C24.0765 3.37602 27.9593 8.51733 27.9998 14.5711Z" fill="#F31830"/>
<path fill-rule="evenodd" clip-rule="evenodd" d="M14 27.8501C21.281 27.8501 27.1833 21.9477 27.1833 14.6667C27.1833 7.38579 21.281 1.48341 14 1.48341C6.71905 1.48341 0.816667 7.38579 0.816667 14.6667C0.816667 21.9477 6.71905 27.8501 14 27.8501ZM14 28.6667C21.732 28.6667 28 22.3987 28 14.6667C28 6.93476 21.732 0.666748 14 0.666748C6.26801 0.666748 0 6.93476 0 14.6667C0 22.3987 6.26801 28.6667 14 28.6667Z" fill="#D9D9D9"/>
</g>
<defs>
<clipPath id="clip0_1175_28746">
<rect y="0.666748" width="28" height="28" fill="white"/>
</clipPath>
</defs>
</svg>
