<svg width="28" height="29" viewBox="0 0 28 29" fill="none" xmlns="http://www.w3.org/2000/svg">
<path fill-rule="evenodd" clip-rule="evenodd" d="M14 28.5C21.732 28.5 28 22.232 28 14.5C28 6.76801 21.732 0.5 14 0.5C6.26801 0.5 0 6.76801 0 14.5C0 22.232 6.26801 28.5 14 28.5Z" fill="#EE1C25"/>
<path fill-rule="evenodd" clip-rule="evenodd" d="M11.5568 6.20875L10.8316 6.36948L10.782 7.16269L10.3682 6.47216L9.61181 6.63978L10.1164 6.05184L9.70259 5.36131L10.4254 5.69167L10.9092 5.12793L10.8615 5.89096L11.5568 6.20875ZM3.35959 11.7701L4.06433 9.65584L2.09961 8.30508H4.51458L5.24957 6.10008L5.98456 8.30508H8.39953L6.43481 9.65584L7.13955 11.7701L5.24957 10.4707L3.35959 11.7701ZM12.7894 8.56341L13.5202 8.69655L13.0025 8.13395L13.3424 7.44915L12.6779 7.78114L12.1398 7.19629L12.2533 7.99324L11.5602 8.33948L12.3225 8.47834L12.436 9.27529L12.7894 8.56341ZM13.234 12.1868L12.621 11.7671L12.008 12.273L12.2294 11.499L11.5901 11.0614L12.3641 11.0279L12.5854 10.254L12.8382 11.0074L13.5804 10.9754L12.9908 11.462L13.234 12.1868ZM10.3581 13.843L10.7615 14.4669L10.8171 13.7044L11.5489 13.4833L10.8519 13.2262L10.9098 12.4335L10.4067 13.062L9.67977 12.7939L10.1004 13.4445L9.59733 14.0729L10.3581 13.843Z" fill="#FFFF00"/>
<path fill-rule="evenodd" clip-rule="evenodd" d="M14 27.6833C21.281 27.6833 27.1833 21.781 27.1833 14.5C27.1833 7.21905 21.281 1.31667 14 1.31667C6.71905 1.31667 0.816667 7.21905 0.816667 14.5C0.816667 21.781 6.71905 27.6833 14 27.6833ZM14 28.5C21.732 28.5 28 22.232 28 14.5C28 6.76801 21.732 0.5 14 0.5C6.26801 0.5 0 6.76801 0 14.5C0 22.232 6.26801 28.5 14 28.5Z" fill="#D9D9D9"/>
</svg>
