<svg width="28" height="29" viewBox="0 0 28 29" fill="none" xmlns="http://www.w3.org/2000/svg">
<path fill-rule="evenodd" clip-rule="evenodd" d="M27.5593 18.1667C26.0051 24.205 20.5238 28.6667 14.0003 28.6667C7.47691 28.6667 1.99556 24.205 0.441406 18.1667H27.5593Z" fill="#FFCE00"/>
<path fill-rule="evenodd" clip-rule="evenodd" d="M27.5593 11.1667H0.441406C1.99556 5.12845 7.47691 0.666748 14.0003 0.666748C20.5238 0.666748 26.0051 5.12845 27.5593 11.1667Z" fill="black"/>
<path fill-rule="evenodd" clip-rule="evenodd" d="M27.5589 18.1667C27.8469 17.0481 28 15.8753 28 14.6667C28 13.4582 27.8469 12.2854 27.5589 11.1667H0.441061C0.153136 12.2854 0 13.4582 0 14.6667C0 15.8753 0.153136 17.0481 0.441061 18.1667H27.5589Z" fill="#DD0000"/>
<path fill-rule="evenodd" clip-rule="evenodd" d="M14 27.8501C21.281 27.8501 27.1833 21.9477 27.1833 14.6667C27.1833 7.38579 21.281 1.48341 14 1.48341C6.71905 1.48341 0.816667 7.38579 0.816667 14.6667C0.816667 21.9477 6.71905 27.8501 14 27.8501ZM14 28.6667C21.732 28.6667 28 22.3987 28 14.6667C28 6.93476 21.732 0.666748 14 0.666748C6.26801 0.666748 0 6.93476 0 14.6667C0 22.3987 6.26801 28.6667 14 28.6667Z" fill="#D9D9D9"/>
</svg>
