<svg width="28" height="29" viewBox="0 0 28 29" fill="none" xmlns="http://www.w3.org/2000/svg">
<path fill-rule="evenodd" clip-rule="evenodd" d="M14 28.5C21.732 28.5 28 22.232 28 14.5C28 6.76801 21.732 0.5 14 0.5C6.26801 0.5 0 6.76801 0 14.5C0 22.232 6.26801 28.5 14 28.5Z" fill="white"/>
<path d="M14.0023 21.0287C17.6074 21.0287 20.5299 18.1062 20.5299 14.5011C20.5299 10.8959 17.6074 7.97339 14.0023 7.97339C10.3971 7.97339 7.47461 10.8959 7.47461 14.5011C7.47461 18.1062 10.3971 21.0287 14.0023 21.0287Z" fill="#BC002D"/>
<path fill-rule="evenodd" clip-rule="evenodd" d="M14 27.6833C21.281 27.6833 27.1833 21.781 27.1833 14.5C27.1833 7.21905 21.281 1.31667 14 1.31667C6.71905 1.31667 0.816667 7.21905 0.816667 14.5C0.816667 21.781 6.71905 27.6833 14 27.6833ZM14 28.5C21.732 28.5 28 22.232 28 14.5C28 6.76801 21.732 0.5 14 0.5C6.26801 0.5 0 6.76801 0 14.5C0 22.232 6.26801 28.5 14 28.5Z" fill="#D9D9D9"/>
</svg>
