<svg width="28" height="29" viewBox="0 0 28 29" fill="none" xmlns="http://www.w3.org/2000/svg">
<path fill-rule="evenodd" clip-rule="evenodd" d="M14 28.5C21.732 28.5 28 22.232 28 14.5C28 6.76801 21.732 0.5 14 0.5C6.26801 0.5 0 6.76801 0 14.5C0 22.232 6.26801 28.5 14 28.5Z" fill="white"/>
<path fill-rule="evenodd" clip-rule="evenodd" d="M23.695 21.2444L20.0537 18.8154L20.2965 18.4514L23.9378 20.8805L23.695 21.2444Z" fill="white"/>
<path fill-rule="evenodd" clip-rule="evenodd" d="M9.62012 11.5925C10.3903 10.435 11.5934 9.6329 12.9606 9.35947C14.3232 9.08603 15.7406 9.36858 16.8981 10.1388C18.0602 10.9135 18.8623 12.1121 19.1357 13.4793C19.4092 14.8419 19.1266 16.2592 18.3564 17.4213L9.62012 11.5925Z" fill="#CD2E3A"/>
<path fill-rule="evenodd" clip-rule="evenodd" d="M9.62012 11.5925C8.84538 12.7546 8.56738 14.172 8.84082 15.5346C9.1097 16.9018 9.91634 18.1003 11.0739 18.8751C12.2314 19.6453 13.6488 19.9278 15.016 19.6544C16.3831 19.3809 17.5817 18.5789 18.3564 17.4213C18.7393 16.8425 18.8805 16.1316 18.7438 15.448C18.6071 14.7644 18.2061 14.1674 17.6273 13.78C17.0485 13.3927 16.3376 13.2514 15.6585 13.3881C14.9749 13.5248 14.3734 13.9259 13.986 14.5092L9.62012 11.5925Z" fill="#0047A0"/>
<path d="M13.9861 14.5091C14.7927 13.3014 14.4646 11.6699 13.2615 10.8678C12.0538 10.0611 10.4223 10.3893 9.62022 11.5924C8.81358 12.8001 9.1417 14.4316 10.3448 15.2337C11.5525 16.0403 13.184 15.7122 13.9861 14.5091Z" fill="#CD2E3A"/>
<path fill-rule="evenodd" clip-rule="evenodd" d="M3.06738 10.3802L5.97949 6.00977L6.70866 6.4974L3.79655 10.8633L3.06738 10.3802ZM4.16113 11.1094L7.07324 6.73893L7.80241 7.22656L4.88574 11.5924L4.16113 11.1094ZM5.25033 11.834L8.16699 7.4681L8.8916 7.95573L5.97949 12.3216L5.25033 11.834ZM19.0817 21.0579L21.9938 16.6921L22.723 17.1797L19.8109 21.5456L19.0817 21.0579ZM20.1755 21.7871L23.0876 17.4212L23.8167 17.9043L20.9046 22.2747L20.1755 21.7871ZM21.2692 22.5163L24.1813 18.1504L24.9059 18.6335L21.9938 23.0039L21.2692 22.5163ZM3.08105 18.638L5.99316 23.0039L6.72233 22.5163L3.81022 18.1504L3.08105 18.638ZM5.7508 20.2747L7.08691 22.2747L7.81152 21.7917L6.47782 19.7901L5.7508 20.2747ZM5.50777 19.911L6.23522 19.426L4.89941 17.4212L4.17025 17.9089L5.50777 19.911ZM5.264 17.1797L8.17611 21.5456L8.90527 21.0625L5.99316 16.6921L5.264 17.1797ZM20.43 9.95669L19.0954 7.95573L19.8245 7.4681L21.159 9.47075L20.43 9.95669ZM20.6728 10.3207L22.0075 12.3216L22.7367 11.8385L21.4015 9.83483L20.6728 10.3207ZM23.1012 11.597L20.1891 7.22656L20.9137 6.74349L23.8258 11.1094L23.1012 11.597ZM22.6132 8.50075L21.2783 6.4974L22.0075 6.01432L23.341 8.01353L22.6132 8.50075ZM22.8558 8.86484L24.1904 10.8678L24.9196 10.3802L23.5838 8.37749L22.8558 8.86484Z" fill="black"/>
<path fill-rule="evenodd" clip-rule="evenodd" d="M14 27.6833C21.281 27.6833 27.1833 21.781 27.1833 14.5C27.1833 7.21905 21.281 1.31667 14 1.31667C6.71905 1.31667 0.816667 7.21905 0.816667 14.5C0.816667 21.781 6.71905 27.6833 14 27.6833ZM14 28.5C21.732 28.5 28 22.232 28 14.5C28 6.76801 21.732 0.5 14 0.5C6.26801 0.5 0 6.76801 0 14.5C0 22.232 6.26801 28.5 14 28.5Z" fill="#D9D9D9"/>
</svg>
