<svg width="28" height="29" viewBox="0 0 28 29" fill="none" xmlns="http://www.w3.org/2000/svg">
<g clip-path="url(#clip0_1175_28731)">
<path fill-rule="evenodd" clip-rule="evenodd" d="M14 28.6667C21.732 28.6667 28 22.3987 28 14.6667C28 6.93476 21.732 0.666748 14 0.666748C6.26801 0.666748 0 6.93476 0 14.6667C0 22.3987 6.26801 28.6667 14 28.6667Z" fill="#012169"/>
<path fill-rule="evenodd" clip-rule="evenodd" d="M26.3667 8.0976L17.5004 14.7104L26.3474 21.2719C25.6754 22.5254 24.8181 23.6647 23.8121 24.6532L14.0004 17.3354L4.20649 24.6706C3.20023 23.6853 2.34201 22.5495 1.66828 21.2995L10.4567 14.7541L1.60156 8.15912C2.26082 6.90561 3.1046 5.7643 4.09678 4.77129L13.9567 12.0854L23.8493 4.7168C24.8489 5.70629 25.7001 6.84533 26.3667 8.0976Z" fill="white"/>
<path fill-rule="evenodd" clip-rule="evenodd" d="M24.3604 5.25049C24.682 5.60406 24.9857 5.97416 25.2701 6.35935L17.1064 12.5231L17.1939 10.5981L24.3604 5.25049ZM1.97949 7.48608C2.23707 7.05582 2.51709 6.64054 2.81794 6.24186L10.4564 11.8668H7.83141L1.97949 7.48608ZM25.1795 23.0956C25.4633 22.7198 25.7286 22.3293 25.974 21.9253L18.5502 16.4606H16.1439L25.1795 23.0956ZM3.70816 24.1577L10.7627 18.8668L10.5002 17.3356L2.80512 23.0748C3.08807 23.4509 3.38953 23.8124 3.70816 24.1577Z" fill="#C8102E"/>
<path fill-rule="evenodd" clip-rule="evenodd" d="M27.5589 18.1667C27.8469 17.0481 28 15.8753 28 14.6667C28 13.4582 27.8469 12.2854 27.5589 11.1667H17.5437V1.11915C16.4119 0.823905 15.2243 0.666748 14 0.666748C12.8072 0.666748 11.6492 0.815919 10.5438 1.09662V11.1667H0.441061C0.153136 12.2854 0 13.4582 0 14.6667C0 15.8753 0.153136 17.0481 0.441061 18.1667H10.5438V28.2369C11.6492 28.5176 12.8072 28.6667 14 28.6667C15.2243 28.6667 16.4119 28.5096 17.5437 28.2143V18.1667H27.5589Z" fill="white"/>
<path fill-rule="evenodd" clip-rule="evenodd" d="M27.8369 16.8105C27.9443 16.1116 28 15.3957 28 14.6667C28 13.9682 27.9488 13.2816 27.8501 12.6105H16.2525L16.332 0.860098C15.5736 0.732936 14.7945 0.666748 14 0.666748C13.3668 0.666748 12.7434 0.708785 12.1325 0.790219L12.0525 12.6105H0.14994C0.051161 13.2816 0 13.9682 0 14.6667C0 15.3957 0.0557093 16.1116 0.163103 16.8105H12.024L11.9448 28.517C12.6155 28.6156 13.3018 28.6667 14 28.6667C14.7293 28.6667 15.4456 28.611 16.1449 28.5035L16.224 16.8105H27.8369Z" fill="#C8102E"/>
<path fill-rule="evenodd" clip-rule="evenodd" d="M14 27.8501C21.281 27.8501 27.1833 21.9477 27.1833 14.6667C27.1833 7.38579 21.281 1.48341 14 1.48341C6.71905 1.48341 0.816667 7.38579 0.816667 14.6667C0.816667 21.9477 6.71905 27.8501 14 27.8501ZM14 28.6667C21.732 28.6667 28 22.3987 28 14.6667C28 6.93476 21.732 0.666748 14 0.666748C6.26801 0.666748 0 6.93476 0 14.6667C0 22.3987 6.26801 28.6667 14 28.6667Z" fill="#D9D9D9"/>
</g>
<defs>
<clipPath id="clip0_1175_28731">
<rect y="0.666748" width="28" height="28" fill="white"/>
</clipPath>
</defs>
</svg>
