<svg width="110" height="12" viewBox="0 0 110 12" fill="none" xmlns="http://www.w3.org/2000/svg">
<path d="M0.824955 5.57576C0.360918 8.26653 0 10.5951 0 10.7503C0 11.0091 0.799176 11.0867 3.09358 11.0867C5.98093 11.0867 6.18717 11.0608 6.18717 10.5951C6.18717 10.3105 6.2645 9.92239 6.34184 9.68954C6.47074 9.32732 6.21294 9.27557 4.51147 9.27557H2.50065L2.6811 8.2924C2.75844 7.77495 2.83578 7.17987 2.83578 6.99876C2.83578 6.79178 3.37716 6.68829 4.64037 6.68829C6.03249 6.68829 6.44496 6.61067 6.44496 6.32607C6.44496 6.11909 6.5223 5.78274 6.59964 5.54989C6.72854 5.18767 6.49652 5.13592 5.05285 5.13592C3.1967 5.13592 3.17092 5.11005 3.50606 3.37657L3.66074 2.57451L5.62001 2.49689L7.57928 2.41927L7.75974 1.56547L7.91442 0.73754H4.79505H1.67569L0.824955 5.57576Z" fill="white"/>
<path d="M9.6669 1.04802C9.51222 1.48785 7.99121 10.3622 7.99121 10.7762C7.99121 10.9573 8.40369 11.0867 9.09974 11.0867H10.2083L10.6981 8.16305C10.9559 6.5848 11.2395 5.11005 11.3426 4.90307C11.4715 4.67021 12.0644 5.65338 13.0956 7.8267L14.6682 11.1125L15.8798 11.0349L17.1173 10.9573L17.968 6.17084C18.4321 3.53181 18.8188 1.22913 18.8188 1.04802C18.8188 0.841035 18.4321 0.737543 17.7102 0.737543H16.6017L16.0087 4.02339C15.6994 5.83449 15.39 7.36099 15.3385 7.41273C15.2869 7.49035 14.5135 5.98973 13.637 4.12688L12.0386 0.737543H10.9043C10.2341 0.737543 9.74424 0.866907 9.6669 1.04802Z" fill="white"/>
<path d="M20.7774 1.41023C20.7001 1.82419 20.3392 3.84228 19.9783 5.9121C19.6174 7.98193 19.2564 9.97414 19.1791 10.3622L19.0244 11.0867H21.5508C24.7475 11.0867 25.8561 10.7503 27.3771 9.27557C29.9551 6.76591 29.9035 2.75562 27.274 1.33261C26.6553 1.02214 25.6498 0.866899 23.6906 0.789281L20.9321 0.685789L20.7774 1.41023ZM26.1397 3.35069C26.7068 3.79053 26.8099 4.07513 26.8099 5.18766C26.8099 7.02463 26.1912 8.18891 24.9022 8.78399C23.6648 9.35319 21.5251 9.45668 21.7055 8.93922C21.7829 8.78399 22.0407 7.30924 22.3242 5.70512L22.7883 2.80736H24.1288C25.0827 2.80736 25.6498 2.9626 26.1397 3.35069Z" fill="white"/>
<path d="M31.6051 1.17746C31.5536 1.43619 31.2185 3.1438 30.9091 5.00664C30.3935 8.13725 30.3935 8.44772 30.7544 9.35327C31.0896 10.1036 31.4505 10.4658 32.4043 10.8798C33.5129 11.3714 33.7964 11.3972 35.0339 11.1385C36.6064 10.8022 37.9728 9.87073 38.5657 8.70645C38.8751 8.0855 40.1898 1.87603 40.2156 0.918733C40.2156 0.815241 39.7 0.737622 39.0555 0.737622C38.411 0.737622 37.8954 0.841114 37.8954 0.944605C37.8954 1.59143 36.8127 7.17996 36.5549 7.8009C36.2197 8.68058 35.6268 9.01693 34.4925 9.01693C32.7137 9.01693 32.5848 8.4736 33.3582 4.15284L33.9511 0.737622H32.8426C32.0176 0.737622 31.7083 0.841114 31.6051 1.17746Z" fill="white"/>
<path d="M42.1503 1.04801C42.0214 1.51372 40.4746 10.3881 40.4746 10.7762C40.4746 10.9573 40.8871 11.0867 41.5831 11.0867H42.6917L43.0268 9.14621C43.2846 7.56796 43.4393 7.20574 43.8002 7.20574C44.1611 7.20574 44.4447 7.7232 44.9861 9.14621L45.6821 11.0867H46.9454C47.6414 11.0867 48.2086 11.0349 48.2086 10.9832C48.2086 10.9314 47.8476 10.0518 47.4352 9.01684C46.9969 7.98193 46.6876 7.10225 46.7133 7.07638C46.7649 7.05051 47.1774 6.81765 47.6156 6.5848C49.9874 5.39465 50.271 2.03118 48.1054 1.12563C46.9196 0.634044 42.305 0.582297 42.1503 1.04801ZM46.6876 2.80736C47.2547 3.14371 47.3578 4.28211 46.8165 5.00655C46.3524 5.6275 43.3877 5.93798 43.6455 5.3429C43.7229 5.11004 43.8776 4.41148 43.9549 3.73878C44.1353 2.54863 44.1353 2.54863 45.1665 2.54863C45.7337 2.54863 46.404 2.678 46.6876 2.80736Z" fill="white"/>
<path d="M51.8162 0.918653C51.8162 1.17738 50.321 9.68954 50.1405 10.5175L49.9858 11.1125L53.1568 11.0349L56.3277 10.9573L56.405 10.1035L56.4824 9.27558H54.5747H52.6669L52.8732 8.16305C52.9763 7.56797 53.0794 6.99877 53.1052 6.8694C53.1052 6.76591 53.9302 6.68829 54.9098 6.68829H56.7144V5.91211V5.13592H55.0387C53.3888 5.13592 53.363 5.13592 53.4919 4.4891C53.5692 4.12688 53.6724 3.55768 53.7497 3.19546C53.8786 2.57451 53.9817 2.54864 55.7863 2.54864C57.7714 2.54864 58.0034 2.41928 58.0034 1.22913C58.0034 0.763416 57.7971 0.737543 54.9098 0.737543C53.2083 0.737543 51.8162 0.815162 51.8162 0.918653Z" fill="white"/>
<path d="M63.1601 0.892777C63.1601 1.07389 61.6391 9.76716 61.4844 10.4916C61.3555 11.0349 61.4328 11.0867 62.4898 11.0867H63.6499L63.9077 9.71541C64.0366 8.99097 64.1913 8.13717 64.2428 7.85257C64.2944 7.54209 64.5264 7.33511 64.81 7.33511C65.1709 7.33511 65.4545 7.80082 65.9701 9.14621L66.6661 10.9573L67.8778 11.0349C68.5481 11.0867 69.0895 11.0091 69.0895 10.8797C69.0895 10.7503 68.8059 9.94827 68.445 9.06859C68.084 8.18891 67.8005 7.36098 67.8005 7.23162C67.8005 7.10226 68.2129 6.76591 68.7028 6.45543C71.1261 5.03243 71.255 2.08293 68.9348 1.09976C68.1098 0.737541 63.1601 0.556431 63.1601 0.892777ZM67.7489 2.9626C68.4965 3.48006 68.4707 4.23037 67.6716 5.00656C67.1817 5.49814 66.7693 5.65338 65.867 5.65338H64.6553L64.8358 4.54085C65.1451 2.60038 65.1709 2.54864 66.2021 2.54864C66.7435 2.54864 67.4395 2.72975 67.7489 2.9626Z" fill="white"/>
<path d="M74.7367 1.46246C72.8548 2.44563 71.8494 4.04975 71.7205 6.32655C71.5916 8.26702 71.9267 9.27606 73.0095 10.1816C75.5101 12.3032 79.8669 11.113 81.3621 7.9048C82.2129 6.06783 82.2129 3.76514 81.3879 2.52325C80.1247 0.608658 77.2374 0.142947 74.7367 1.46246ZM78.9904 3.35118C79.5576 3.81689 79.6607 4.07562 79.6607 5.31751C79.6607 7.69781 78.449 9.01733 76.2835 9.01733C74.6594 9.01733 73.9891 8.29289 73.9891 6.55941C73.9891 5.05879 74.7109 3.68753 75.7937 3.1442C76.7733 2.65261 78.217 2.73023 78.9904 3.35118Z" fill="white"/>
<path d="M84.3274 2.08274C82.9868 8.86142 83.0899 9.76697 85.1781 10.8019C86.3382 11.397 86.5444 11.4228 87.8592 11.1382C89.6122 10.776 90.927 9.79284 91.5199 8.39571C91.9066 7.51603 93.0667 1.97925 93.0667 0.996078C93.0667 0.866714 92.5511 0.73735 91.9582 0.73735H90.8239L90.2309 4.28193C89.5091 8.42158 89.1482 9.01665 87.4209 9.01665C86.6218 9.01665 86.2866 8.88729 85.9773 8.42158C85.6164 7.87825 85.6421 7.51603 86.1062 4.85113C86.3897 3.22114 86.6733 1.6429 86.7507 1.30655C86.8796 0.789095 86.8022 0.73735 85.7453 0.73735H84.5852L84.3274 2.08274Z" fill="white"/>
<path d="M94.3033 1.64309L94.2002 2.54864H95.5665C96.4946 2.54864 96.9329 2.65213 96.9329 2.85912C96.9071 3.04023 96.5719 4.98069 96.1852 7.15401L95.4634 11.1125L96.6493 11.0349L97.8094 10.9573L98.1187 9.27558C98.2734 8.34416 98.6086 6.45544 98.8663 5.05831L99.3046 2.54864H100.671C102.089 2.54864 102.347 2.34166 102.347 1.22913C102.347 0.763416 102.115 0.737543 98.3765 0.737543H94.4064L94.3033 1.64309Z" fill="white"/>
<path d="M103.79 1.17738C103.661 1.66896 102.089 10.5692 102.089 10.9056C102.089 11.0091 103.481 11.0867 105.182 11.0867C107.477 11.0867 108.276 11.0091 108.276 10.7503C108.276 10.5951 108.353 10.1811 108.431 9.84477C108.585 9.30145 108.534 9.27557 106.626 9.27557H104.641L104.796 8.2924C105.079 6.66242 105.054 6.68829 106.832 6.68829C108.096 6.68829 108.508 6.5848 108.637 6.27432C109.024 5.26528 108.843 5.13592 107.09 5.13592H105.389L105.543 4.33386C105.621 3.89402 105.698 3.29895 105.698 3.04022C105.698 2.60038 105.904 2.54864 107.76 2.54864C109.617 2.54864 109.823 2.49689 109.823 2.05705C109.823 1.77245 109.9 1.38436 109.978 1.15151C110.106 0.789286 109.745 0.73754 107.039 0.73754C104.306 0.73754 103.919 0.789286 103.79 1.17738Z" fill="white"/>
</svg>
