<svg width="132" height="44" viewBox="0 0 132 44" fill="none" xmlns="http://www.w3.org/2000/svg">
<path d="M26.5122 4.90145L21.3149 9.80286H36.4736H51.6323L55.4374 6.16633L59.2426 2.56142L69.2968 2.52979L79.351 2.49817L80.7431 1.26491L82.1352 0.0316563L56.9224 3.43323e-05H31.6785L26.5122 4.90145Z" fill="#FF914C"/>
<path d="M54.4475 7.68464L49.374 12.4912L74.525 12.586L99.6761 12.6493L104.069 8.50681C106.451 6.1984 108.771 3.98486 109.204 3.6054L109.978 2.84647H84.7649H59.552L54.4475 7.68464Z" fill="#CBC9C9"/>
<path d="M0.989954 24.8863C0.433105 28.175 0 31.021 0 31.2107C0 31.527 0.959018 31.6218 3.71233 31.6218C7.17717 31.6218 7.42466 31.5902 7.42466 31.021C7.42466 30.6732 7.51746 30.1988 7.61027 29.9142C7.76495 29.4715 7.45559 29.4083 5.41381 29.4083H3.0008L3.21735 28.2066C3.31016 27.5742 3.40297 26.8469 3.40297 26.6255C3.40297 26.3726 4.05262 26.2461 5.56849 26.2461C7.23904 26.2461 7.73402 26.1512 7.73402 25.8034C7.73402 25.5504 7.82682 25.1393 7.91963 24.8547C8.07431 24.412 7.79589 24.3488 6.06347 24.3488C3.83607 24.3488 3.80514 24.3171 4.2073 22.1985L4.39292 21.2182L6.74406 21.1233L9.0952 21.0285L9.31176 19.9849L9.49737 18.973H5.75411H2.01084L0.989954 24.8863Z" fill="white"/>
<path d="M11.6012 19.3525C11.4156 19.8901 9.59033 30.7364 9.59033 31.2424C9.59033 31.4637 10.0853 31.6218 10.9206 31.6218H12.2508L12.8386 28.0485C13.148 26.1196 13.4883 24.3171 13.612 24.0642C13.7667 23.7796 14.4782 24.9812 15.7157 27.6374L17.6028 31.6534L19.0568 31.5586L20.5417 31.4637L21.5626 25.6136C22.1194 22.3882 22.5835 19.5738 22.5835 19.3525C22.5835 19.0995 22.1194 18.973 21.2532 18.973H19.923L19.2114 22.989C18.8402 25.2026 18.469 27.0683 18.4071 27.1315C18.3452 27.2264 17.4172 25.3923 16.3653 23.1155L14.4473 18.973H13.0861C12.2818 18.973 11.694 19.1311 11.6012 19.3525Z" fill="white"/>
<path d="M24.9342 19.7952C24.8414 20.3012 24.4083 22.7677 23.9752 25.2974C23.5421 27.8272 23.109 30.2621 23.0162 30.7364L22.8306 31.6218H25.8623C29.6984 31.6218 31.0286 31.2107 32.8539 29.4083C35.9475 26.341 35.8856 21.4395 32.7301 19.7003C31.9876 19.3209 30.7811 19.1311 28.43 19.0363L25.1198 18.9098L24.9342 19.7952ZM31.3689 22.1668C32.0495 22.7044 32.1733 23.0523 32.1733 24.412C32.1733 26.6572 31.4308 28.0802 29.884 28.8075C28.3991 29.5032 25.8314 29.6296 26.0479 28.9972C26.1407 28.8075 26.4501 27.005 26.7904 25.0445L27.3472 21.5028H28.9559C30.1005 21.5028 30.7811 21.6925 31.3689 22.1668Z" fill="white"/>
<path d="M37.9277 19.5106C37.8658 19.8268 37.4636 21.9139 37.0924 24.1907C36.4737 28.0169 36.4737 28.3964 36.9068 29.5032C37.3089 30.4202 37.742 30.8629 38.8867 31.3689C40.2169 31.9697 40.5572 32.0013 42.0422 31.6851C43.9293 31.274 45.5689 30.1356 46.2804 28.7126C46.6516 27.9537 48.2294 20.3644 48.2603 19.1944C48.2603 19.0679 47.6416 18.973 46.8682 18.973C46.0948 18.973 45.4761 19.0995 45.4761 19.226C45.4761 20.0166 44.1767 26.8469 43.8674 27.6058C43.4652 28.681 42.7537 29.0921 41.3925 29.0921C39.2579 29.0921 39.1032 28.428 40.0313 23.1471L40.7428 18.973H39.4126C38.4226 18.973 38.0514 19.0995 37.9277 19.5106Z" fill="white"/>
<path d="M50.5807 19.3525C50.426 19.9217 48.5698 30.768 48.5698 31.2424C48.5698 31.4637 49.0648 31.6218 49.9001 31.6218H51.2303L51.6325 29.2502C51.9419 27.3212 52.1275 26.8785 52.5606 26.8785C52.9937 26.8785 53.334 27.511 53.9836 29.2502L54.8189 31.6218H56.3348C57.1701 31.6218 57.8506 31.5586 57.8506 31.4953C57.8506 31.4321 57.4175 30.3569 56.9226 29.0921C56.3966 27.8272 56.0254 26.752 56.0564 26.7204C56.1182 26.6888 56.6132 26.4042 57.1391 26.1196C59.9852 24.665 60.3255 20.5541 57.7269 19.4474C56.3038 18.8465 50.7663 18.7833 50.5807 19.3525ZM56.0254 21.5028C56.706 21.9139 56.8298 23.3052 56.1801 24.1907C55.6232 24.9496 52.0656 25.329 52.375 24.6017C52.4678 24.3171 52.6534 23.4633 52.7462 22.6412C52.9627 21.1866 52.9627 21.1866 54.2002 21.1866C54.8808 21.1866 55.6851 21.3447 56.0254 21.5028Z" fill="white"/>
<path d="M62.1813 19.1944C62.1813 19.5106 60.387 29.9142 60.1705 30.9261L59.9849 31.6534L63.79 31.5586L67.5951 31.4637L67.6879 30.4202L67.7808 29.4083H65.4915H63.2022L63.4497 28.0485C63.5734 27.3212 63.6972 26.6255 63.7281 26.4674C63.7281 26.3409 64.7181 26.2461 65.8937 26.2461H68.0592V25.2974V24.3488H66.0483C64.0684 24.3488 64.0375 24.3488 64.1922 23.5582C64.285 23.1155 64.4087 22.4198 64.5015 21.9771C64.6562 21.2182 64.78 21.1866 66.9455 21.1866C69.3276 21.1866 69.606 21.0284 69.606 19.5738C69.606 19.0046 69.3585 18.973 65.8937 18.973C63.8519 18.973 62.1813 19.0679 62.1813 19.1944Z" fill="white"/>
<path d="M75.7937 19.1628C75.7937 19.3841 73.9685 30.0091 73.7828 30.8945C73.6282 31.5586 73.721 31.6218 74.9893 31.6218H76.3815L76.6908 29.9459C76.8455 29.0604 77.0311 28.0169 77.093 27.6691C77.1549 27.2896 77.4333 27.0366 77.7736 27.0366C78.2067 27.0366 78.547 27.6058 79.1657 29.2502L80.001 31.4637L81.455 31.5586C82.2593 31.6218 82.909 31.527 82.909 31.3689C82.909 31.2107 82.5687 30.2305 82.1356 29.1553C81.7025 28.0802 81.3622 27.0683 81.3622 26.9101C81.3622 26.752 81.8571 26.341 82.4449 25.9615C85.3529 24.2223 85.5076 20.6174 82.7234 19.4157C81.7334 18.973 75.7937 18.7517 75.7937 19.1628ZM81.3003 21.6925C82.1974 22.325 82.1665 23.242 81.2075 24.1907C80.6197 24.7915 80.1247 24.9812 79.042 24.9812H77.588L77.8045 23.6215C78.1758 21.2498 78.2067 21.1866 79.4441 21.1866C80.0938 21.1866 80.9291 21.4079 81.3003 21.6925Z" fill="white"/>
<path d="M89.6836 19.8586C87.4253 21.0602 86.2188 23.0208 86.0641 25.8035C85.9094 28.1752 86.3116 29.4084 87.6109 30.5152C90.6117 33.1082 95.8399 31.6536 97.6342 27.7325C98.6551 25.4873 98.6551 22.6729 97.6651 21.1551C96.1492 18.8151 92.6844 18.2459 89.6836 19.8586ZM94.7881 22.167C95.4686 22.7362 95.5924 23.0524 95.5924 24.5703C95.5924 27.4795 94.1384 29.0922 91.5398 29.0922C89.5908 29.0922 88.7865 28.2068 88.7865 26.0881C88.7865 24.254 89.6527 22.5781 90.952 21.914C92.1276 21.3132 93.86 21.4081 94.7881 22.167Z" fill="white"/>
<path d="M101.192 20.6174C99.5833 28.9023 99.707 30.0091 102.213 31.274C103.605 32.0013 103.852 32.0329 105.43 31.6851C107.534 31.2423 109.112 30.0407 109.823 28.3331C110.287 27.258 111.679 20.4909 111.679 19.2892C111.679 19.1311 111.061 18.973 110.349 18.973H108.988L108.276 23.3052C107.41 28.3647 106.977 29.0921 104.904 29.0921C103.945 29.0921 103.543 28.9339 103.172 28.3647C102.739 27.7007 102.77 27.258 103.327 24.0009C103.667 22.0087 104.007 20.0798 104.1 19.6687C104.255 19.0363 104.162 18.973 102.893 18.973H101.501L101.192 20.6174Z" fill="white"/>
<path d="M113.164 20.0798L113.041 21.1866H114.68C115.794 21.1866 116.32 21.313 116.32 21.566C116.289 21.7874 115.887 24.159 115.423 26.8153L114.556 31.6534L115.979 31.5586L117.372 31.4637L117.743 29.4083C117.928 28.2699 118.331 25.9615 118.64 24.2539L119.166 21.1866H120.805C122.507 21.1866 122.816 20.9336 122.816 19.5738C122.816 19.0046 122.538 18.973 118.052 18.973H113.288L113.164 20.0798Z" fill="white"/>
<path d="M124.549 19.5106C124.394 20.1114 122.507 30.9894 122.507 31.4005C122.507 31.527 124.177 31.6218 126.219 31.6218C128.972 31.6218 129.931 31.527 129.931 31.2107C129.931 31.021 130.024 30.5151 130.117 30.104C130.303 29.4399 130.241 29.4083 127.952 29.4083H125.57L125.755 28.2066C126.095 26.2145 126.064 26.2461 128.199 26.2461C129.715 26.2461 130.21 26.1196 130.365 25.7401C130.829 24.5069 130.612 24.3488 128.508 24.3488H126.467L126.652 23.3685C126.745 22.8309 126.838 22.1036 126.838 21.7874C126.838 21.2498 127.085 21.1866 129.313 21.1866C131.54 21.1866 131.788 21.1233 131.788 20.5857C131.788 20.2379 131.88 19.7636 131.973 19.479C132.128 19.0363 131.695 18.973 128.447 18.973C125.167 18.973 124.703 19.0363 124.549 19.5106Z" fill="white"/>
<path d="M5.50673 39.2427C4.54772 39.8119 4.82614 41.0451 6.03265 41.646C7.11541 42.1835 7.42477 42.7843 6.77511 43.1954C6.5895 43.2903 6.09452 43.2271 5.69235 42.9741C4.76427 42.4681 4.26929 42.9108 5.07363 43.5117C6.28014 44.3971 8.04349 43.8279 8.04349 42.563C8.04349 42.0254 7.70319 41.6143 6.96073 41.14C6.37294 40.7922 5.87797 40.3495 5.87797 40.1913C5.87797 39.6221 6.55856 39.464 7.30103 39.8751C8.16724 40.3495 8.60034 40.0649 8.04349 39.3692C7.61039 38.8316 6.31107 38.7684 5.50673 39.2427Z" fill="#CBC9C9"/>
<path d="M11.1372 39.2115C11.1372 39.3696 11.4156 39.5278 11.7869 39.5278C12.3128 39.5278 12.4056 39.6859 12.2818 40.2234C12.189 40.6345 12.0034 41.6148 11.9106 42.437C11.725 43.6702 11.7869 43.9548 12.1581 43.9548C12.4675 43.9548 12.684 43.4805 12.8387 42.437C13.2099 39.7807 13.3027 39.5278 14.1071 39.5278C14.5092 39.5278 14.8495 39.3696 14.8495 39.2115C14.8495 39.0218 14.0143 38.8953 12.9934 38.8953C11.9725 38.8953 11.1372 39.0218 11.1372 39.2115Z" fill="#CBC9C9"/>
<path d="M17.2008 39.591C16.8915 41.1089 16.3965 43.6702 16.3965 43.7967C16.3965 43.8916 16.613 43.9548 16.8605 43.9548C17.108 43.9548 17.3864 43.5121 17.5102 42.8481C17.603 42.2472 17.8195 41.7413 17.9433 41.7413C18.098 41.7413 18.3764 42.2472 18.5929 42.8481C18.8404 43.5437 19.2117 43.9548 19.552 43.9548C20.016 43.9548 20.0469 43.86 19.6757 42.9429C19.2735 41.9943 19.3045 41.8994 19.9851 41.3302C21.4391 40.1602 20.7275 38.8953 18.6548 38.8953C17.5411 38.8953 17.3246 38.9902 17.2008 39.591ZM19.6757 40.0021C19.9232 40.6345 19.2735 41.4251 18.5311 41.4251C18.098 41.4251 17.9433 41.2037 17.9433 40.4764C17.9433 39.6859 18.067 39.5278 18.7167 39.5278C19.1498 39.5278 19.5829 39.7491 19.6757 40.0021Z" fill="#CBC9C9"/>
<path d="M23.233 40.8875C22.7071 43.9864 22.7071 43.9548 24.2848 43.9548C25.0582 43.9548 25.6769 43.7967 25.6769 43.6386C25.6769 43.4489 25.2438 43.3224 24.7179 43.3224C23.9136 43.3224 23.7898 43.2275 23.8827 42.5951C23.9445 42.0891 24.2229 41.8678 24.8417 41.8045C25.8935 41.678 25.9554 41.1088 24.8726 41.1088C24.2539 41.1088 24.0992 40.9824 24.2539 40.6029C24.3467 40.3183 24.4395 39.9704 24.4395 39.8123C24.4395 39.6542 24.8726 39.5277 25.3676 39.5277C25.8935 39.5277 26.2957 39.3696 26.2957 39.2115C26.2957 39.0218 25.6769 38.8953 24.9345 38.8953H23.5733L23.233 40.8875Z" fill="#CBC9C9"/>
<path d="M28.9252 39.9072C28.8324 40.4764 28.6468 41.6148 28.4921 42.437C28.2755 43.6702 28.3065 43.9548 28.6777 43.9548C29.1418 43.9548 29.2655 43.7019 29.5439 41.9626C29.6367 41.3302 29.8223 40.7926 29.9461 40.7926C30.1008 40.7926 30.5029 41.5199 30.8742 42.4054C31.7094 44.4608 32.5138 44.4608 32.8541 42.3737C32.9778 41.5832 33.1634 40.4764 33.2563 39.9072C33.38 39.1483 33.3181 38.8953 33.0088 38.8953C32.5447 38.8953 32.1735 39.8124 32.1735 41.014C32.1735 42.3737 31.5238 42.1208 30.8742 40.508C30.0698 38.5791 29.2036 38.3261 28.9252 39.9072Z" fill="#CBC9C9"/>
<path d="M36.4735 39.8124C34.8958 41.4567 35.5145 43.9548 37.5253 43.9548C38.5462 43.9548 39.8456 43.0378 40.1549 42.0575L40.4952 41.1089H39.2578C38.6081 41.1089 38.0513 41.2353 38.0513 41.4251C38.0513 41.5832 38.3297 41.7413 38.7009 41.7413C39.134 41.7413 39.2887 41.8994 39.2268 42.2789C39.165 42.7216 38.8247 42.8481 37.8966 42.8481C36.7829 42.8481 36.6591 42.7532 36.5663 41.9943C36.5045 41.5199 36.6282 40.8243 36.8138 40.4448C37.1541 39.844 37.3707 39.7807 38.7009 39.9388C40.2477 40.1286 40.5261 39.9705 39.8456 39.2748C39.134 38.5475 37.4635 38.8321 36.4735 39.8124Z" fill="#CBC9C9"/>
<path d="M43.0015 39.2115C43.0015 39.3696 43.3108 39.5278 43.6511 39.5278C44.2389 39.5278 44.3008 39.6542 44.1152 40.6978C43.9914 41.3618 43.8367 42.3737 43.713 42.9113C43.5893 43.7019 43.6511 43.9548 44.0224 43.9548C44.3627 43.9548 44.5792 43.354 44.8576 41.7413C45.1979 39.7175 45.2907 39.5278 45.9713 39.5278C46.3735 39.5278 46.7138 39.3696 46.7138 39.2115C46.7138 39.0218 45.8785 38.8953 44.8576 38.8953C43.8367 38.8953 43.0015 39.0218 43.0015 39.2115Z" fill="#CBC9C9"/>
<path d="M49.1883 38.9902C49.1883 39.2748 48.5077 42.9113 48.3839 43.3856C48.2911 43.7651 48.3839 43.9548 48.6623 43.9548C49.1573 43.9548 49.4976 43.2908 49.4976 42.3421C49.4976 41.8362 49.7142 41.7413 50.7351 41.7413H52.0034L51.7869 42.8481C51.6322 43.7019 51.6941 43.9548 52.0653 43.9548C52.4056 43.9548 52.6222 43.3856 52.8697 41.9626C53.3028 39.338 53.3028 38.8953 52.7768 38.8953C52.4984 38.8953 52.2819 39.2748 52.22 39.9072C52.1272 40.8559 52.0344 40.9507 50.9207 41.0456L49.7451 41.1405L49.9307 40.0337C50.1163 39.1167 50.0545 38.8953 49.6523 38.8953C49.4048 38.8953 49.1883 38.9269 49.1883 38.9902Z" fill="#CBC9C9"/>
<path d="M59.3044 39.1167C59.2116 39.2748 59.0569 40.0653 58.9641 40.9507C58.8404 41.8045 58.6547 42.8481 58.5619 43.2275C58.4382 43.7651 58.531 43.9548 58.9022 43.9548C59.1806 43.9548 59.3972 43.9232 59.3972 43.86C59.3972 43.5754 60.0778 39.9388 60.2015 39.4329C60.3562 38.8953 59.5828 38.6423 59.3044 39.1167Z" fill="#CBC9C9"/>
<path d="M62.955 39.2745C62.8004 39.7488 62.1816 43.2905 62.1816 43.7016C62.1816 43.828 62.3673 43.9545 62.6147 43.9545C62.9241 43.9545 63.1407 43.4486 63.2953 42.5315C63.3881 41.741 63.6356 41.0137 63.7903 40.9188C63.945 40.824 64.3781 41.4564 64.7184 42.3418C65.7393 44.7451 66.358 44.5554 66.8221 41.6461C67.0386 40.4129 67.2861 39.2429 67.348 39.1164C67.4408 38.9583 67.2552 38.895 66.9458 38.9583C66.5127 39.0215 66.2961 39.4642 66.0796 40.571C65.9558 41.3932 65.7393 42.0572 65.6155 42.0572C65.4918 42.0572 65.0896 41.3299 64.7493 40.4761C64.0997 38.9583 63.2644 38.3891 62.955 39.2745Z" fill="#CBC9C9"/>
<path d="M73.195 39.5909C72.8856 41.1088 72.3906 43.6701 72.3906 43.7966C72.3906 44.1128 75.1439 43.9547 75.3296 43.6385C75.4533 43.4488 75.113 43.3223 74.5871 43.3223C73.7827 43.3223 73.6281 43.1958 73.6281 42.5317C73.6281 41.8677 73.7827 41.7412 74.5561 41.7412C75.0821 41.7412 75.4842 41.5831 75.4842 41.425C75.4842 41.2352 75.1439 41.1088 74.7108 41.1088C74.0921 41.1088 73.9374 40.9506 73.9374 40.3182C73.9374 39.6225 74.0612 39.5277 75.0202 39.5277C75.608 39.5277 76.103 39.3695 76.103 39.2114C76.103 39.0217 75.4842 38.8952 74.7108 38.8952C73.5353 38.8952 73.3187 38.9901 73.195 39.5909Z" fill="#CBC9C9"/>
<path d="M78.5776 39.2432C78.5776 39.4013 78.7323 40.5397 78.9179 41.7729C79.2273 43.6702 79.382 43.9548 79.9388 43.9548C80.4338 43.9548 80.8978 43.354 81.9187 41.4251C82.9396 39.5278 83.1562 38.8953 82.7849 38.8953C82.5065 38.8953 81.8569 39.7807 81.2381 41.014C80.1244 43.3224 80.0626 43.2908 79.6604 40.3815C79.5367 39.4013 79.3201 38.8953 79.0107 38.8953C78.7633 38.8953 78.5776 39.0534 78.5776 39.2432Z" fill="#CBC9C9"/>
<path d="M85.3837 40.6978C85.1981 41.7097 84.9815 42.8481 84.8887 43.2275C84.765 43.8916 84.8578 43.9548 86.1262 43.9548C86.8996 43.9548 87.6111 43.7967 87.7039 43.6386C87.8277 43.4489 87.4874 43.3224 86.9615 43.3224C86.1571 43.3224 86.0024 43.1959 86.0024 42.5318C86.0024 41.8678 86.1571 41.7413 86.9305 41.7413C87.4564 41.7413 87.8586 41.5832 87.8586 41.4251C87.8586 41.2353 87.4874 41.1089 87.0543 41.1089C86.4046 41.1089 86.2809 40.9824 86.3737 40.3815C86.4355 39.844 86.714 39.6542 87.4874 39.591C88.9723 39.4329 88.6939 38.8953 87.1161 38.8953H85.724L85.3837 40.6978Z" fill="#CBC9C9"/>
<path d="M91.1378 39.4329C91.0141 39.9388 90.3335 43.5754 90.3335 43.86C90.3335 43.9232 90.55 43.9548 90.7975 43.9548C91.045 43.9548 91.3235 43.5121 91.4472 42.8481C91.54 42.2472 91.7566 41.7413 91.8803 41.7413C92.035 41.7413 92.3134 42.2472 92.53 42.8481C92.7774 43.5437 93.1487 43.9548 93.489 43.9548C93.953 43.9548 93.984 43.86 93.6127 42.9429C93.2105 41.9943 93.2415 41.8994 93.9221 41.3302C95.3761 40.1918 94.6955 38.8953 92.6228 38.8953C91.6328 38.8953 91.2616 39.0218 91.1378 39.4329ZM93.6127 40.0021C93.8602 40.6345 93.2105 41.4251 92.4681 41.4251C92.035 41.4251 91.8803 41.2037 91.8803 40.4764C91.8803 39.6859 92.004 39.5278 92.6537 39.5278C93.0868 39.5278 93.5199 39.7491 93.6127 40.0021Z" fill="#CBC9C9"/>
<path d="M97.789 40.6029C98.1602 41.678 98.3149 42.6267 98.1911 43.1327C98.0674 43.7335 98.1293 43.9548 98.4696 43.9548C98.7171 43.9548 99.0264 43.5754 99.1192 43.0694C99.243 42.5951 99.8308 41.4567 100.419 40.5397C101.192 39.3064 101.347 38.8953 101.006 38.8953C100.728 38.8953 100.233 39.4013 99.8926 40.0021C99.1502 41.2353 98.8099 41.2037 98.5314 39.844C98.3768 39.1799 98.1293 38.8953 97.7271 38.8953C97.1703 38.8953 97.1703 38.9269 97.789 40.6029Z" fill="#CBC9C9"/>
<path d="M106.791 41.1089C106.327 43.8916 106.327 43.9548 106.853 43.9548C107.132 43.9548 107.348 43.4173 107.503 42.3737C107.627 41.4883 107.843 40.7926 107.967 40.7926C108.091 40.7926 108.307 41.4883 108.431 42.3737C108.555 43.4173 108.802 43.9548 109.081 43.9548C109.297 43.9548 109.854 43.2275 110.287 42.3737C110.72 41.4883 111.153 40.7926 111.246 40.7926C111.339 40.7926 111.339 41.4883 111.215 42.3737C111.061 43.6386 111.091 43.9548 111.432 43.9548C111.741 43.9548 111.989 43.2908 112.236 41.931C112.731 39.2748 112.7 38.8953 112.081 38.8953C111.71 38.8953 111.122 39.6226 110.473 40.8875L109.39 42.8481L109.019 41.5832C108.802 40.8875 108.617 40.0021 108.617 39.591C108.586 39.085 108.4 38.8953 107.874 38.8953C107.224 38.8953 107.132 39.1167 106.791 41.1089Z" fill="#CBC9C9"/>
<path d="M115.144 40.9191C114.68 43.4805 114.68 43.9548 115.206 43.9548C115.485 43.9548 115.732 43.2275 115.98 41.7729C116.413 38.9902 116.413 38.8953 115.918 38.8953C115.639 38.8953 115.361 39.6226 115.144 40.9191Z" fill="#CBC9C9"/>
<path d="M118.795 41.1721C118.578 42.437 118.362 43.5754 118.269 43.7019C118.207 43.86 118.764 43.9548 119.537 43.9548C120.311 43.9548 120.96 43.7967 120.96 43.6386C120.96 43.4489 120.589 43.3224 120.156 43.3224C119.413 43.3224 119.352 43.2591 119.537 42.2156C119.63 41.6148 119.816 40.6029 119.908 40.0021C120.063 39.1483 120.001 38.8953 119.63 38.8953C119.29 38.8953 119.073 39.5278 118.795 41.1721Z" fill="#CBC9C9"/>
<path d="M123.806 41.1089C123.59 42.3421 123.435 43.4805 123.435 43.6386C123.435 43.8283 124.054 43.9548 124.827 43.9548C125.601 43.9548 126.219 43.7967 126.219 43.6386C126.219 43.4489 125.817 43.3224 125.291 43.3224C124.796 43.3224 124.363 43.1959 124.363 43.0378C124.363 42.184 124.827 41.7413 125.632 41.7413C126.126 41.7413 126.529 41.5832 126.529 41.4251C126.529 41.2353 126.188 41.1089 125.755 41.1089C125.137 41.1089 124.982 40.9507 124.982 40.3183C124.982 39.6542 125.137 39.5278 125.879 39.5278C126.405 39.5278 126.9 39.3696 126.993 39.2115C127.116 39.0218 126.591 38.8953 125.693 38.8953H124.178L123.806 41.1089Z" fill="#CBC9C9"/>
</svg>
